inDegrees=yes
name=ik_coleta2_trike_10hz_mov
DataType=double
version=3
OpenSimVersion=4.4-2022-07-23-0e9fedc
endheader
time	hip_flexion_r	knee_angle_r	hip_flexion_l	knee_angle_l	gearToGround_coord_0
37.46238708496094	100.2774484557305	-73.30047183581257	96.09537009240182	-101.3108219833518	-1825.772493126345
37.46738910675049	100.0533110210447	-73.04556519190858	96.30646100609248	-101.5217773252737	-1826.334767951359
37.47246313095093	99.81724114744473	-72.77810231832541	96.57339835329921	-101.7772755296445	-1826.92733304285
37.47740983963013	99.58038549178926	-72.51079692970842	96.7590966098269	-102.0191369107995	-1827.521759338209
37.48039221763611	99.34783854410692	-72.2493833993632	96.9496478614452	-102.2642926508114	-1828.106209977691
37.48739290237427	99.10554283261004	-71.97781900437388	97.14433775994549	-102.5554524353719	-1828.715056546161
37.49539709091187	98.86140336612577	-71.70586573086888	97.37004976400929	-102.7907591559303	-1829.329270271911
37.50238990783691	98.61090700828993	-71.4277229235831	97.62624977468434	-103.0314630560481	-1829.959139514026
37.50744199752808	98.39320214655817	-71.18697209495963	97.79484274255799	-103.2930255409472	-1830.50857061737
37.51539492607117	98.2119667002674	-70.98722610119333	97.96827841588257	-103.5185806714658	-1830.966783315495
37.52142715454102	98.05716071828061	-70.8171571034523	98.11475066665584	-103.610292583383	-1831.357826752471
37.52546501159668	97.89875793542278	-70.64357733269642	98.26224556413568	-103.771628407365	-1831.758476999181
37.53039288520813	97.73556100079567	-70.46525072148474	98.41625803677971	-103.9357335450151	-1832.171654691857
37.53539085388184	97.57562202653418	-70.29102512792686	98.56148401891659	-104.1017771050824	-1832.576638303604
37.54143810272217	97.42804746703702	-70.13072540457196	98.70493563089103	-104.2451911086116	-1832.950055287634
37.54739499092102	97.27210392516504	-69.96178232454855	98.87057116525645	-104.3966835146035	-1833.34649099907
37.5544159412384	97.04885147865505	-69.72075676021622	99.04917260274368	-104.6687686900015	-1833.912912677374
37.56040215492249	96.68087937544793	-69.32566547172929	99.54364097646639	-105.0464186974942	-1834.853596960616
37.56539511680603	96.16370263709645	-68.77513817281721	99.89193261185945	-105.5341300310561	-1836.170351356928
37.5704300403595	95.54153331244964	-68.12023127321827	100.5361775464515	-106.0979502999353	-1837.771165513286
37.57740783691406	94.93958035312671	-67.49447946127	101.0874226315395	-106.7065388806647	-1839.328132445029
37.58439803123474	94.42082194854211	-66.96170047117468	101.7707574659129	-107.2360216081232	-1840.677510608258
37.59143996238708	93.94619447556755	-66.479839706829	102.1415031498495	-107.6049643330146	-1841.923841041511
37.59839296340942	93.44021830990309	-65.97196610035948	102.6115905186744	-108.0674288802572	-1843.257232691051
37.60442209243774	92.87675851667662	-65.41368669675666	103.1985784451488	-108.5721736376856	-1844.758387016652
37.6104109287262	92.26935111453641	-64.82123211747756	103.8284113200245	-109.1123436102125	-1846.395032742428
37.62143993377686	91.6798863897163	-64.25596734762233	104.5115646170006	-109.8132243534175	-1848.000406614003
37.6374409198761	91.16305059059344	-63.84935914125891	104.9368907221499	-110.0052667999755	-1849.23989805224
37.64238500595093	90.73907831852969	-63.61435758066656	105.7514258215021	-110.5849486113783	-1850.913377351791
37.64638304710388	90.35233541307974	-63.28228671894967	106.1152307263658	-110.8992503780307	-1852.264191405411
37.65339517593384	89.96214285192717	-62.93357034035865	106.6204971557347	-111.2209988966582	-1853.388732720398
37.66639494895935	89.57350581643055	-62.59168254038017	106.9986540673369	-111.525068021666	-1854.527744431558
37.67445492744446	89.20837479827382	-62.27574543777455	107.4025806365491	-111.8430218609526	-1855.610417763215
37.67838597297668	88.86218607458621	-61.98097496258295	107.8357169290881	-112.073915083772	-1856.648921010374
37.68239188194275	88.53797293777559	-61.70960746779443	108.1879410948992	-112.3569273712769	-1857.635347070682
37.68741393089294	88.20405111788253	-61.43470173490023	108.6333950120986	-112.5684818156134	-1858.66436257926
37.69240212440491	87.86672979767212	-61.16226698233655	108.9900035703215	-112.8365352179279	-1859.709414187921
37.69638800621033	87.54013991794753	-60.90375144482765	109.4241033757866	-113.0458662933536	-1860.745587163762
37.70239186286926	87.24315932549547	-60.673401893357	109.7482447199272	-113.2825983540471	-1861.694652949497
37.7064471244812	86.95572899599649	-60.45491734494259	110.130914762974	-113.5765854762692	-1862.626339064974
37.71339297294617	86.64212086496345	-60.22180438556819	110.5129932463517	-113.6613176913474	-1863.658490216869
37.71739196777344	86.26838741266531	-59.95170466549133	110.9686917657551	-113.914189663864	-1864.909234685882
37.7224440574646	85.82285052299962	-59.64143846380053	111.5470888202168	-114.1799942881691	-1866.433248135131
37.72640609741211	85.30306519132213	-59.2970867628793	112.3035923970557	-114.5030673920268	-1868.263877292987
37.73037695884705	84.70689478165423	-58.92833105443964	112.9926442236671	-114.8328415764668	-1870.4413031255
37.73539185523987	84.05239606717488	-58.56054820338645	113.8910232608341	-115.2486445740281	-1872.942243300698
37.7404568195343	83.38744483096366	-58.23396253755546	114.8399862542684	-115.5851572105638	-1875.628024240718
37.7453989982605	82.731467044089	-57.96830560432871	115.8111392283979	-115.866739904929	-1878.454415979809
37.74939203262329	82.06512504086803	-57.7705997145436	116.754499771643	-116.0018355542095	-1881.556467889157
37.7534167766571	81.3812637771465	-57.66681479815056	117.7719443429561	-115.9307948007255	-1885.061752967627
37.75941705703735	80.76953730807271	-57.69128306104414	118.7390512464776	-116.0480183035599	-1888.585068313456
37.76539206504822	80.30408145193984	-57.81582424980339	119.7571181199658	-116.0934830464666	-1891.621851510399
37.77642583847046	79.9543953329312	-57.99594219696515	120.0995177320315	-115.7862133812587	-1894.197233306751
37.78039503097534	79.66639313580841	-58.22407000238255	120.5736085186506	-115.5252226660521	-1896.592114260812
37.78641080856323	79.41729100022906	-58.50549417676788	121.0366742420057	-115.2955099674512	-1898.955441177297
37.7924211025238	79.20549456610472	-58.83692328599444	121.4676363691621	-115.0477093144506	-1901.286448372091
37.79939699172974	79.03177841965454	-59.20885946121896	121.8546678972472	-114.7657205957497	-1903.550293349786
37.80341386795044	78.89537272905902	-59.60768171321318	122.1816928945597	-114.4467423891268	-1905.705564696358
37.80746102333069	78.79475234380764	-60.01116810857656	122.4525787787735	-114.1183314038265	-1907.683987624286
37.8123791217804	78.72734300301715	-60.3826203077292	122.6594451793702	-113.8085760407136	-1909.37030430264
37.81639385223389	78.68790742725784	-60.67606276708236	122.781931252996	-113.5513826302195	-1910.62924294392
37.81939005851746	78.66652309239213	-60.88156508740346	122.8563712866684	-113.370189904912	-1911.478263864909
37.82838892936707	78.65020931647001	-61.08032949191072	122.9178136583952	-113.1933694274442	-1912.276519518711
37.8364200592041	78.63138576957131	-61.41951753120713	123.0095513503603	-112.8915149470722	-1913.592056785292
37.84042000770569	78.62140773826744	-61.99183575109172	123.1161612930292	-112.3767658944829	-1915.700765267261
37.84639501571655	78.64334752219432	-62.74681478098766	123.1855649553299	-111.693725229123	-1918.305878098463
37.85139298439026	78.69929221313785	-63.52045848328345	123.1795491433678	-110.9885364483272	-1920.812164888426
37.85645985603333	78.76864960542829	-64.17591109247697	123.1789655206404	-110.3893526609379	-1922.831765154682
37.86240696907043	78.83494794673067	-64.687928432395	122.8932790727363	-109.7446569360472	-1924.35313149111
37.8683910369873	78.8960720688669	-65.1053307675508	123.0620347213378	-109.542639201829	-1925.561587465377
37.87245988845825	78.95890297855885	-65.49783754638374	123.0068398086284	-109.1796431534681	-1926.674941822441
37.87840604782104	79.03442384838745	-65.934140806889	122.9305949146897	-108.7775639285432	-1927.887897790964
37.89245676994324	79.1356122062945	-66.47411367145924	122.8191003618005	-108.2795088730214	-1929.356397795654
37.89740395545959	79.25863922403602	-67.08047754870118	122.6552910064448	-107.7176448151683	-1930.96767241771
37.90239500999451	79.37909723727633	-67.6342300120042	122.5565530759242	-107.1865564363964	-1932.407394950774
37.91238689422607	79.4821691498574	-68.08359805629716	122.3932401576887	-106.7867602924087	-1933.554899471732
37.91639804840088	79.56986689650763	-68.45124254577108	122.3024708598533	-106.4421338371329	-1934.482013843345
37.92244505882263	79.64918363140698	-68.77368872865213	122.2165117857249	-106.0691366148818	-1935.285859644925
37.93139696121216	79.73521891135738	-69.11382622881356	122.1093646884337	-105.8060744196427	-1936.124940171863
37.93537306785583	79.84571709977652	-69.53784555257953	121.9103718767736	-105.4245243961982	-1937.161602682208
37.9394199848175	79.99868475965786	-70.1038869405795	121.7553262191827	-104.889862843108	-1938.526384660302
37.94441795349121	80.20414373097223	-70.83171995394437	121.2813014092236	-103.8956326460561	-1940.254527502302
37.94840598106384	80.43579449512748	-71.61527245362443	121.1419539352377	-103.4728418064483	-1942.08353655244
37.95239114761353	80.63021810680507	-72.24701894423129	120.7494046963886	-102.7972801354142	-1943.536891325871
37.969398021698	80.7512019304085	-72.63022550774444	120.7023639798074	-102.5107086918576	-1944.409381515936
37.98441791534424	80.8271450005403	-72.86687653957995	120.6344585522923	-102.2289534640517	-1944.945958315377
37.99342107772827	80.91021625886896	-73.12265060267451	120.5203013477418	-102.0152395649291	-1945.523149100633
38.00239515304565	81.04151216720761	-73.52064593171902	120.3149994497696	-101.6629958516906	-1946.415994641465
38.00745320320129	81.22716308548181	-74.07116362987408	120.0564323783088	-101.1375015002332	-1947.642041832124
38.01240301132202	81.4402310379008	-74.68720527692162	119.7775911794415	-100.4988470259404	-1949.001920667437
38.01639890670776	81.651461143736	-75.28243740507226	119.4417361001824	-99.83280980154319	-1950.305685126614
38.02040696144104	81.85117903192092	-75.83237427799618	119.1976156226445	-99.42551240240654	-1951.500399167269
38.0263979434967	82.05552908823671	-76.38271518879765	118.8375830162812	-98.90806057900102	-1952.688185179106
38.03239488601685	82.27451959283516	-76.96089141814227	118.3740593013878	-98.19568441152285	-1953.930992481412
38.03944206237793	82.51051289709474	-77.57018507128411	118.2604808438561	-97.71041040323171	-1955.229101219273
38.04440498352051	82.76308981072397	-78.2080289081905	117.8980158423155	-97.14672490032576	-1956.582178872245
38.04839897155762	83.04792400812089	-78.91091534775937	117.4972768006652	-96.45993774624424	-1958.063636641705
38.0524001121521	83.43109247575039	-79.83116087059985	116.948070813342	-95.57036029813037	-1959.993844271397
38.05645990371704	83.94369344982779	-81.02091906234297	116.2283409111672	-94.3408048236973	-1962.474239092609
